<?xml version="1.0" encoding="utf-8"?>
<!-- Generator: Adobe Illustrator 25.3.1, SVG Export Plug-In . SVG Version: 6.00 Build 0)  -->
<svg version="1.1" id="Layer_1" xmlns="http://www.w3.org/2000/svg" xmlns:xlink="http://www.w3.org/1999/xlink" x="0px" y="0px"
	 viewBox="0 0 64 65" style="enable-background:new 0 0 64 65;" xml:space="preserve">
<style type="text/css">
	.st0{fill-rule:evenodd;clip-rule:evenodd;fill:#5A5B5D;}
</style>
<path class="st0" d="M36,0c1.1,0,2.1,0.4,2.8,1.3C39.6,2.2,40,3.2,40,4.4V24h19.6c1.1,0,2.1,0.3,2.9,1l0.2,0.2
	C63.6,26,64,26.9,64,28v8c0,1.1-0.4,2.1-1.3,2.8c-0.8,0.8-1.9,1.2-3.1,1.2H40v19.6c0,1.1-0.3,2.1-1,2.9l-0.2,0.2
	C38.1,63.6,37.1,64,36,64h-8c-1.1,0-2.1-0.4-2.8-1.3c-0.8-0.8-1.2-1.9-1.2-3.1V40H4.4c-1.1,0-2.1-0.3-2.9-1l-0.2-0.2
	C0.4,38.1,0,37.1,0,36v-8c0-1.1,0.4-2.1,1.3-2.8C2.1,24.4,3.2,24,4.4,24H24V4.4c0-1.1,0.3-2.1,1-2.9l0.2-0.2C25.9,0.5,26.9,0,28,0
	H36z"/>
</svg>
